<?xml version="1.0" encoding="UTF-8"?>
<svg version="1.1" xmlns="http://www.w3.org/2000/svg" width="256" height="256">
<path d="M0 0 C7.26 0 14.52 0 22 0 C22 3.96 22 7.92 22 12 C22.886875 12.28875 23.77375 12.5775 24.6875 12.875 C27.50382424 13.83148748 30.25083156 14.86798946 33 16 C33.32613281 15.4946875 33.65226562 14.989375 33.98828125 14.46875 C34.42527344 13.8190625 34.86226563 13.169375 35.3125 12.5 C35.74175781 11.8503125 36.17101562 11.200625 36.61328125 10.53125 C37.07089844 10.0259375 37.52851563 9.520625 38 9 C38.99 9 39.98 9 41 9 C43.015625 11.16015625 43.015625 11.16015625 45.25 14.0625 C48.45335437 18.11869547 51.71127559 21.84505966 55.42578125 25.4296875 C57.80853197 27.80652569 59.89088724 30.37958718 62 33 C60.54955729 37.10958767 58.48889248 40.43258745 56 44 C56.495 44.886875 56.99 45.77375 57.5 46.6875 C58.97517759 49.94518385 59.14169869 51.53428611 59 55 C59.78246094 54.98839844 60.56492187 54.97679687 61.37109375 54.96484375 C62.88896484 54.95130859 62.88896484 54.95130859 64.4375 54.9375 C65.44683594 54.92589844 66.45617187 54.91429687 67.49609375 54.90234375 C70 55 70 55 71 56 C71.10091475 58.58189446 71.13971499 61.136465 71.1328125 63.71875 C71.13376923 64.49182495 71.13472595 65.2648999 71.13571167 66.06140137 C71.13639341 67.69897544 71.13453957 69.33655219 71.13037109 70.97412109 C71.12502271 73.48931921 71.13031626 76.00433873 71.13671875 78.51953125 C71.13605797 80.10677123 71.1347768 81.6940111 71.1328125 83.28125 C71.13483673 84.03853394 71.13686096 84.79581787 71.13894653 85.5760498 C71.11495132 90.88504868 71.11495132 90.88504868 70 92 C68.14712498 92.07226502 66.29166122 92.0838122 64.4375 92.0625 C63.42558594 92.05347656 62.41367188 92.04445313 61.37109375 92.03515625 C60.58863281 92.02355469 59.80617188 92.01195312 59 92 C58.814375 93.546875 58.814375 93.546875 58.625 95.125 C58.06110186 98.62116846 57.21317941 101.68397627 56 105 C56.66708984 105.56267578 56.66708984 105.56267578 57.34765625 106.13671875 C57.91355469 106.64847656 58.47945313 107.16023438 59.0625 107.6875 C59.63097656 108.18636719 60.19945312 108.68523437 60.78515625 109.19921875 C62 111 62 111 62.07421875 113.2109375 C60.44744906 117.43462316 57.65807636 120.51080608 54.75 123.9375 C54.17636719 124.62779297 53.60273438 125.31808594 53.01171875 126.02929688 C51.34945248 128.02666694 49.67564123 130.01384846 48 132 C47.02511664 133.16719676 46.05105788 134.33508315 45.078125 135.50390625 C44.39234375 136.32761719 43.7065625 137.15132812 43 138 C40.53199953 136.84826645 38.95216435 135.95216435 37 134 C35.20639298 136.10253933 33.41505881 138.20694333 31.625 140.3125 C30.86316406 141.20485352 30.86316406 141.20485352 30.0859375 142.11523438 C29.59609375 142.69208984 29.10625 143.26894531 28.6015625 143.86328125 C28.15119629 144.39219971 27.70083008 144.92111816 27.23681641 145.46606445 C26.07125727 146.91162467 25.03003696 148.45494456 24 150 C23.01 150 22.02 150 21 150 C22.76296281 145.47369548 24.80159064 141.10761859 26.87890625 136.71875 C28.61698216 132.50376451 29.13019065 128.72277362 29.0625 124.1875 C29.05347656 123.39730469 29.04445313 122.60710937 29.03515625 121.79296875 C29.02355469 121.20128906 29.01195312 120.60960937 29 120 C28.98582031 120.65484375 28.97164063 121.3096875 28.95703125 121.984375 C28.41091766 132.43433225 24.88139068 142.03207394 18 150 C17.01 150 16.02 150 15 150 C15.03480469 149.18917969 15.06960937 148.37835938 15.10546875 147.54296875 C15.31993714 138.77019032 15.34351409 130.0122169 9.5 123 C8.675 122.34 7.85 121.68 7 121 C6 120 5 119 4 118 C3.505 119.485 3.505 119.485 3 121 C-5.59171005 121.78106455 -13.90419996 118.89039575 -20.8125 113.8125 C-29.39872391 106.49945938 -36.44589458 96.38620094 -38 85 C-38.18947749 81.62413018 -38.23781216 78.25578752 -38.25 74.875 C-38.25592163 73.46093872 -38.25592163 73.46093872 -38.26196289 72.01831055 C-38.2120286 66.05759738 -37.49505699 61.01035089 -35.6171875 55.33203125 C-33.54876868 47.51655002 -36.74301742 39.07932818 -40 32 C-40.66 31.34 -41.32 30.68 -42 30 C-41.69964844 30.556875 -41.39929688 31.11375 -41.08984375 31.6875 C-38.38743029 37.11064837 -37.37807744 41.04623457 -39 47 C-39.48146484 48.40572266 -39.48146484 48.40572266 -39.97265625 49.83984375 C-45.03141046 65.08863333 -45.29963748 83.04257197 -39 98 C-33.39313636 108.95135115 -26.02786191 118.22658994 -15 124 C-14.30390625 124.36867188 -13.6078125 124.73734375 -12.890625 125.1171875 C-7.79479785 126.67348066 -2.42538159 126.32156964 2.87109375 126.30273438 C9.43121366 126.45337417 9.43121366 126.45337417 12.10546875 129.0234375 C13.25104629 132.83535927 13.32350246 136.3796618 13.1875 140.3125 C13.125625 142.849375 13.06375 145.38625 13 148 C4.75 148 -3.5 148 -12 148 C-12 143.38 -12 138.76 -12 134 C-14.97 133.01 -14.97 133.01 -18 132 C-19.69207001 131.0436126 -21.36816893 130.05589069 -23 129 C-23.2475 129.556875 -23.495 130.11375 -23.75 130.6875 C-25.21606015 133.39971127 -27.02989471 135.63587365 -29 138 C-31.98891914 136.67718093 -33.86921863 135.3195069 -35.98828125 132.83984375 C-36.52686768 132.214729 -37.0654541 131.58961426 -37.62036133 130.94555664 C-38.17876709 130.28289795 -38.73717285 129.62023926 -39.3125 128.9375 C-39.88701904 128.26517334 -40.46153809 127.59284668 -41.0534668 126.90014648 C-45.17999106 122.04476037 -49.19157337 117.1102161 -53 112 C-51 109 -49 106 -47 103 C-47.31969001 100.60232493 -48.13475604 98.67500014 -49.0625 96.4375 C-50 94 -50 94 -50 91 C-53.63 91 -57.26 91 -61 91 C-61 78.46 -61 65.92 -61 53 C-57.04 53 -53.08 53 -49 53 C-48.690625 51.576875 -48.38125 50.15375 -48.0625 48.6875 C-47.48800637 46.04482928 -46.85697694 43.57093082 -46 41 C-47.68153312 38.82205684 -49.58490218 36.97776109 -51.53125 35.03515625 C-53 33 -53 33 -52.8359375 30.94140625 C-51.00050133 26.67873439 -48.86141897 23.57427931 -45 21 C-37.78982247 19.77273574 -32.01827615 23.28328682 -26 27 C-22.81996765 29.49923669 -19.86628613 32.14819006 -17 35 C-15.68 34.34 -14.36 33.68 -13 33 C-13.9075 32.608125 -14.815 32.21625 -15.75 31.8125 C-20.14766177 29.35995786 -22.40902453 26.77292642 -24 22 C-24.69389791 14.8562641 -24.4418779 9.7624362 -20 4 C-16.19390606 0.52973788 -12.31968452 0.56268012 -7.3828125 0.6953125 C-4.36557823 1.08112278 -2.36524635 2.10780292 0 4 C0 2.68 0 1.36 0 0 Z M0 4 C1.39759905 7.54518884 1.39759905 7.54518884 3 11 C3.72885633 18.20492408 3.26802804 23.10007889 -1 29 C-1.66 29.66 -2.32 30.32 -3 31 C-2.17757812 31.02578125 -1.35515625 31.0515625 -0.5078125 31.078125 C10.11854909 31.61803252 18.8578941 33.91990791 27 41 C27 42.32 27 43.64 27 45 C26.10796875 45.18175781 25.2159375 45.36351562 24.296875 45.55078125 C22.54117188 45.92783203 22.54117188 45.92783203 20.75 46.3125 C19.58984375 46.55613281 18.4296875 46.79976562 17.234375 47.05078125 C14.14631978 47.95705833 12.38476526 48.8926703 10 51 C10.70125 51.08636719 11.4025 51.17273438 12.125 51.26171875 C19.91105645 52.41481678 25.90842975 53.83429843 30.75390625 60.36328125 C35.75498786 69.07600897 36.36744548 78.18449888 37 88 C36.01 88 35.02 88 34 88 C35.12305008 90.99480021 36.33812029 93.56001173 38 96.3125 C41.26342523 102.60798822 41.3590366 110.0506073 42 117 C42.33 117 42.66 117 43 117 C43.020625 115.824375 43.04125 114.64875 43.0625 113.4375 C43.63280839 107.97636509 45.92208617 103.40546201 48.38500977 98.58178711 C54.63377687 86.1618876 55.22390774 70.30930445 51.4375 57 C46.5441016 43.72772995 39.36500277 30.13079644 26.58203125 23.1796875 C20.28020615 20.30048753 13.86571207 18.74627305 7 18 C6.91363281 17.40832031 6.82726562 16.81664062 6.73828125 16.20703125 C5.72391007 10.50235666 4.50562764 7.6756436 0 4 Z M8 51 C6.33378575 52.1645201 6.33378575 52.1645201 5 54 C5.23043864 56.65466049 5.23043864 56.65466049 6 59 C6.33 59 6.66 59 7 59 C7 57.35 7 55.7 7 54 C7.66 54 8.32 54 9 54 C8.67 53.01 8.34 52.02 8 51 Z M1 56 C-4.30587066 61.62502078 -6.90854759 66.35983312 -8 74 C-5.58852789 71.58852789 -4.49786957 69.18814327 -3 66.125 C-2.484375 65.07570313 -1.96875 64.02640625 -1.4375 62.9453125 C-0.7259375 61.48738281 -0.7259375 61.48738281 0 60 C0.66491631 58.66579292 1.33076058 57.33204385 2 56 C1.67 56 1.34 56 1 56 Z M10 61 C11 63 11 63 11 63 Z M5 64 C5 65.65 5 67.3 5 69 C5.33 69 5.66 69 6 69 C6 67.35 6 65.7 6 64 C5.67 64 5.34 64 5 64 Z M11 64 C12 66 12 66 12 66 Z M12 66 C13 68 13 68 13 68 Z M13 68 C14.4859916 72.59306496 16.85014682 75.43569245 20 79 C20.66 78.67 21.32 78.34 22 78 C20.69118353 76.33043913 19.37785174 74.66441696 18.0625 73 C17.33160156 72.071875 16.60070312 71.14375 15.84765625 70.1875 C15.23792969 69.465625 14.62820312 68.74375 14 68 C13.67 68 13.34 68 13 68 Z M-9 74 C-8 78 -8 78 -8 78 Z M6 75 C7 77 7 77 7 77 Z M7 79 C8 81 8 81 8 81 Z M8 81 C8.34444881 83.47266765 8.34444881 83.47266765 9 86 C9.66 86.33 10.32 86.66 11 87 C10.34 85.02 9.68 83.04 9 81 C8.67 81 8.34 81 8 81 Z " fill="#010101" transform="translate(116,52)"/>
<path d="M0 0 C7.26 0 14.52 0 22 0 C22 3.96 22 7.92 22 12 C23.3303125 12.433125 23.3303125 12.433125 24.6875 12.875 C27.50382424 13.83148748 30.25083156 14.86798946 33 16 C33.32613281 15.4946875 33.65226562 14.989375 33.98828125 14.46875 C34.42527344 13.8190625 34.86226562 13.169375 35.3125 12.5 C35.74175781 11.8503125 36.17101562 11.200625 36.61328125 10.53125 C37.07089844 10.0259375 37.52851563 9.520625 38 9 C38.99 9 39.98 9 41 9 C43.015625 11.16015625 43.015625 11.16015625 45.25 14.0625 C48.45335437 18.11869547 51.71127559 21.84505966 55.42578125 25.4296875 C57.80853197 27.80652569 59.89088724 30.37958718 62 33 C60.54955729 37.10958767 58.48889248 40.43258745 56 44 C56.495 44.886875 56.99 45.77375 57.5 46.6875 C58.97517759 49.94518385 59.14169869 51.53428611 59 55 C59.78246094 54.98839844 60.56492187 54.97679687 61.37109375 54.96484375 C62.88896484 54.95130859 62.88896484 54.95130859 64.4375 54.9375 C65.44683594 54.92589844 66.45617187 54.91429687 67.49609375 54.90234375 C70 55 70 55 71 56 C71.10091475 58.58189446 71.13971499 61.136465 71.1328125 63.71875 C71.13376923 64.49182495 71.13472595 65.2648999 71.13571167 66.06140137 C71.13639341 67.69897544 71.13453957 69.33655219 71.13037109 70.97412109 C71.12502271 73.48931921 71.13031626 76.00433873 71.13671875 78.51953125 C71.13605797 80.10677123 71.1347768 81.6940111 71.1328125 83.28125 C71.13483673 84.03853394 71.13686096 84.79581787 71.13894653 85.5760498 C71.11495132 90.88504868 71.11495132 90.88504868 70 92 C68.14712498 92.07226502 66.29166122 92.0838122 64.4375 92.0625 C63.42558594 92.05347656 62.41367188 92.04445313 61.37109375 92.03515625 C60.58863281 92.02355469 59.80617188 92.01195312 59 92 C58.814375 93.546875 58.814375 93.546875 58.625 95.125 C58.06110186 98.62116846 57.21317941 101.68397627 56 105 C56.66708984 105.56267578 56.66708984 105.56267578 57.34765625 106.13671875 C57.91355469 106.64847656 58.47945313 107.16023438 59.0625 107.6875 C59.63097656 108.18636719 60.19945312 108.68523437 60.78515625 109.19921875 C62 111 62 111 62.07421875 113.2109375 C60.44744906 117.43462316 57.65807636 120.51080608 54.75 123.9375 C53.88955078 124.97293945 53.88955078 124.97293945 53.01171875 126.02929688 C51.34945248 128.02666694 49.67564123 130.01384846 48 132 C47.02511664 133.16719676 46.05105788 134.33508315 45.078125 135.50390625 C44.39234375 136.32761719 43.7065625 137.15132812 43 138 C40.53199953 136.84826645 38.95216435 135.95216435 37 134 C35.20639298 136.10253933 33.41505881 138.20694333 31.625 140.3125 C30.86316406 141.20485352 30.86316406 141.20485352 30.0859375 142.11523438 C29.59609375 142.69208984 29.10625 143.26894531 28.6015625 143.86328125 C28.15119629 144.39219971 27.70083008 144.92111816 27.23681641 145.46606445 C26.07125727 146.91162467 25.03003696 148.45494456 24 150 C23.01 150 22.02 150 21 150 C22.76296281 145.47369548 24.80159064 141.10761859 26.87890625 136.71875 C28.61698216 132.50376451 29.13019065 128.72277362 29.0625 124.1875 C29.05347656 123.39730469 29.04445312 122.60710937 29.03515625 121.79296875 C29.02355469 121.20128906 29.01195312 120.60960937 29 120 C28.98582031 120.65484375 28.97164062 121.3096875 28.95703125 121.984375 C28.41091766 132.43433225 24.88139068 142.03207394 18 150 C17.01 150 16.02 150 15 150 C15.03480469 149.18917969 15.06960937 148.37835938 15.10546875 147.54296875 C15.3118766 139.09990494 15.42247501 130.22776325 9.875 123.375 C8.92625 122.59125 7.9775 121.8075 7 121 C-2.25058106 112.80955947 -8.35929497 103.78681187 -9.2734375 91.25 C-9.74655445 77.2963356 -6.18268006 67.42552162 1.9375 55.94921875 C4 54 4 54 6.75 53.70703125 C7.86375 53.85205078 7.86375 53.85205078 9 54 C9 53.01 9 52.02 9 51 C16.45926515 50.39844636 21.88332049 51.50335784 28 56 C36.43130188 65.61342255 37.17899309 75.70914126 37 88 C36.01 88 35.02 88 34 88 C34.39832031 88.60585937 34.79664063 89.21171875 35.20703125 89.8359375 C38.92839519 95.72130626 41.35919118 101.23526188 43 108 C44.13427397 105.6707957 45.25740384 103.33719515 46.375 101 C46.69210938 100.35160156 47.00921875 99.70320313 47.3359375 99.03515625 C53.40255838 86.26997482 54.30902336 70.6084877 50.4375 57 C45.25717889 42.91828206 38.01416892 29.50508438 24 23 C18.44410301 20.88544219 12.89913479 19.6412103 7 19 C6.5978125 17.453125 6.5978125 17.453125 6.1875 15.875 C4.9080511 11.40146589 3.33127025 7.33127025 0 4 C0 2.68 0 1.36 0 0 Z M10 61 C11 63 11 63 11 63 Z M5 64 C5 65.65 5 67.3 5 69 C5.33 69 5.66 69 6 69 C6 67.35 6 65.7 6 64 C5.67 64 5.34 64 5 64 Z M11 64 C12 66 12 66 12 66 Z M12 66 C13 68 13 68 13 68 Z M13 68 C14.4859916 72.59306496 16.85014682 75.43569245 20 79 C20.66 78.67 21.32 78.34 22 78 C20.69118353 76.33043913 19.37785174 74.66441696 18.0625 73 C17.33160156 72.071875 16.60070312 71.14375 15.84765625 70.1875 C15.23792969 69.465625 14.62820312 68.74375 14 68 C13.67 68 13.34 68 13 68 Z M6 75 C7 77 7 77 7 77 Z M7 79 C8 81 8 81 8 81 Z M8 81 C8.34444881 83.47266765 8.34444881 83.47266765 9 86 C9.66 86.33 10.32 86.66 11 87 C10.34 85.02 9.68 83.04 9 81 C8.67 81 8.34 81 8 81 Z " fill="#66FB06" transform="translate(116,52)"/>
<path d="M0 0 C7.26 0 14.52 0 22 0 C22 3.96 22 7.92 22 12 C23.3303125 12.433125 23.3303125 12.433125 24.6875 12.875 C27.50382424 13.83148748 30.25083156 14.86798946 33 16 C33.32613281 15.4946875 33.65226562 14.989375 33.98828125 14.46875 C34.42527344 13.8190625 34.86226562 13.169375 35.3125 12.5 C35.74175781 11.8503125 36.17101562 11.200625 36.61328125 10.53125 C37.07089844 10.0259375 37.52851563 9.520625 38 9 C38.99 9 39.98 9 41 9 C43.015625 11.16015625 43.015625 11.16015625 45.25 14.0625 C48.45335437 18.11869547 51.71127559 21.84505966 55.42578125 25.4296875 C57.80853197 27.80652569 59.89088724 30.37958718 62 33 C60.54955729 37.10958767 58.48889248 40.43258745 56 44 C56.495 44.886875 56.99 45.77375 57.5 46.6875 C58.97517759 49.94518385 59.14169869 51.53428611 59 55 C59.78246094 54.98839844 60.56492188 54.97679687 61.37109375 54.96484375 C62.38300781 54.95582031 63.39492187 54.94679687 64.4375 54.9375 C65.44683594 54.92589844 66.45617187 54.91429687 67.49609375 54.90234375 C70 55 70 55 71 56 C71.10091475 58.58189446 71.13971499 61.136465 71.1328125 63.71875 C71.13376923 64.49182495 71.13472595 65.2648999 71.13571167 66.06140137 C71.13639341 67.69897544 71.13453957 69.33655219 71.13037109 70.97412109 C71.12502271 73.48931921 71.13031626 76.00433873 71.13671875 78.51953125 C71.13605797 80.10677123 71.1347768 81.6940111 71.1328125 83.28125 C71.13483673 84.03853394 71.13686096 84.79581787 71.13894653 85.5760498 C71.11495132 90.88504868 71.11495132 90.88504868 70 92 C68.14712498 92.07226502 66.29166122 92.0838122 64.4375 92.0625 C63.42558594 92.05347656 62.41367188 92.04445313 61.37109375 92.03515625 C60.58863281 92.02355469 59.80617187 92.01195312 59 92 C58.814375 93.546875 58.814375 93.546875 58.625 95.125 C58.06110186 98.62116846 57.21317941 101.68397627 56 105 C56.44472656 105.37511719 56.88945312 105.75023437 57.34765625 106.13671875 C57.91355469 106.64847656 58.47945312 107.16023438 59.0625 107.6875 C59.63097656 108.18636719 60.19945312 108.68523437 60.78515625 109.19921875 C62 111 62 111 62.07421875 113.2109375 C60.44744906 117.43462316 57.65807636 120.51080608 54.75 123.9375 C53.88955078 124.97293945 53.88955078 124.97293945 53.01171875 126.02929688 C51.34945248 128.02666694 49.67564123 130.01384846 48 132 C47.02511664 133.16719676 46.05105788 134.33508315 45.078125 135.50390625 C44.39234375 136.32761719 43.7065625 137.15132812 43 138 C40.53199953 136.84826645 38.95216435 135.95216435 37 134 C37.27616696 130.87010777 38.24098259 128.41325978 39.4375 125.5 C40.82957711 121.9703258 41.32956162 118.70296458 41.75 114.9375 C42.58386132 108.75542467 44.6017888 103.85773788 47.43652344 98.37670898 C53.68811189 86.17130687 54.16964292 70.11856247 50.4375 57 C45.25717889 42.91828206 38.01416892 29.50508438 24 23 C18.44410301 20.88544219 12.89913479 19.6412103 7 19 C6.731875 17.96875 6.46375 16.9375 6.1875 15.875 C4.9080511 11.40146589 3.33127025 7.33127025 0 4 C0 2.68 0 1.36 0 0 Z " fill="#989998" transform="translate(116,52)"/>
<path d="M0 0 C0.66 0 1.32 0 2 0 C3.38013585 2.48847251 4.72809945 4.98713887 6.0625 7.5 C6.64741211 8.54414062 6.64741211 8.54414062 7.24414062 9.609375 C10.04844215 14.96980977 10.34335984 18.08681787 9 24 C8.34939369 26.05372112 7.66141593 28.09595965 6.9375 30.125 C2.66719357 44.68783989 2.96068665 63.20398613 9.95996094 76.875 C15.6448478 87.06499004 22.54151631 95.52467619 33 101 C33.69609375 101.36867188 34.3921875 101.73734375 35.109375 102.1171875 C40.20520215 103.67348066 45.57461841 103.32156964 50.87109375 103.30273438 C57.43121366 103.45337417 57.43121366 103.45337417 60.10546875 106.0234375 C61.25104629 109.83535927 61.32350246 113.3796618 61.1875 117.3125 C61.0946875 121.1178125 61.0946875 121.1178125 61 125 C52.75 125 44.5 125 36 125 C36 120.38 36 115.76 36 111 C33.03 110.01 33.03 110.01 30 109 C28.30792999 108.0436126 26.63183107 107.05589069 25 106 C24.62875 106.8353125 24.62875 106.8353125 24.25 107.6875 C22.78393985 110.39971127 20.97010529 112.63587365 19 115 C16.01108086 113.67718093 14.13078137 112.3195069 12.01171875 109.83984375 C11.47313232 109.214729 10.9345459 108.58961426 10.37963867 107.94555664 C9.82123291 107.28289795 9.26282715 106.62023926 8.6875 105.9375 C8.11298096 105.26517334 7.53846191 104.59284668 6.9465332 103.90014648 C2.82000894 99.04476037 -1.19157337 94.1102161 -5 89 C-3 86 -1 83 1 80 C0.68030999 77.60232493 -0.13475604 75.67500014 -1.0625 73.4375 C-2 71 -2 71 -2 68 C-5.63 68 -9.26 68 -13 68 C-13 55.46 -13 42.92 -13 30 C-9.04 30 -5.08 30 -1 30 C-0.690625 28.576875 -0.38125 27.15375 -0.0625 25.6875 C0.51199363 23.04482928 1.14302306 20.57093082 2 18 C0.31846688 15.82205684 -1.58490218 13.97776109 -3.53125 12.03515625 C-5 10 -5 10 -4.83984375 7.94921875 C-3.5748843 5.01333612 -1.9134621 2.5512828 0 0 Z " fill="#979797" transform="translate(68,75)"/>
<path d="M0 0 C0.66 0 1.32 0 2 0 C2.04374756 0.9744104 2.04374756 0.9744104 2.08837891 1.96850586 C2.23891574 4.96035899 2.43166604 7.94811926 2.625 10.9375 C2.67011719 11.95908203 2.71523437 12.98066406 2.76171875 14.03320312 C3.34896151 22.38806604 5.81610968 28.23313778 12.1015625 33.89208984 C13.07222656 34.68800537 13.07222656 34.68800537 14.0625 35.5 C20.37284443 40.7244343 23.92396272 47.90698723 25 56 C25.90654742 67.53436934 23.9870478 77.6092448 17 87 C16.67 87 16.34 87 16 87 C15.88785156 85.74445313 15.77570313 84.48890625 15.66015625 83.1953125 C14.46306791 72.3073537 12.87139216 65.22797817 4 58 C2.91967883 57.14202682 1.83683468 56.28720711 0.75 55.4375 C-2.42384961 52.62431512 -3.95607355 49.84790687 -5.82421875 46.0859375 C-6.88304179 43.95809665 -6.88304179 43.95809665 -8.58203125 42.5390625 C-12.16877489 38.64601293 -11.11671858 32.16309763 -11.0625 27.1875 C-11.05573242 26.00510742 -11.05573242 26.00510742 -11.04882812 24.79882812 C-11.03711312 22.86585239 -11.01917998 20.93291607 -11 19 C-10.34 18.67 -9.68 18.34 -9 18 C-8.04430991 15.92665692 -8.04430991 15.92665692 -7.1875 13.4375 C-5.34991804 8.65428105 -3.27646271 3.98970629 0 0 Z " fill="#64FC05" transform="translate(118,111)"/>
<path d="M0 0 C7.45926515 -0.60155364 12.88332049 0.50335784 19 5 C27.43130188 14.61342255 28.17899309 24.70914126 28 37 C26.0625 36.625 26.0625 36.625 24 36 C23.67 35.34 23.34 34.68 23 34 C23.99 34 24.98 34 26 34 C25.76998701 31.30945333 25.51669552 28.62445732 25.25 25.9375 C25.188125 25.18533203 25.12625 24.43316406 25.0625 23.65820312 C24.2656471 15.988494 21.24721446 10.17263222 15.21484375 5.22265625 C10.84798441 2.81202667 5.90106193 2.4667678 1 2 C4.36129868 12.02193661 8.42804563 19.61160816 16 27 C15.01 27.33 14.02 27.66 13 28 C10.36 24.7 7.72 21.4 5 18 C4.01 18.33 3.02 18.66 2 19 C1.34 17.02 0.68 15.04 0 13 C-0.60740239 24.06822126 0.44161675 30.0882125 7.75 38.375 C8.36359375 39.02210938 8.9771875 39.66921875 9.609375 40.3359375 C11 42 11 42 11 44 C12.485 44.495 12.485 44.495 14 45 C13.67 46.65 13.34 48.3 13 50 C12.34 49.319375 11.68 48.63875 11 47.9375 C8.76135373 45.6733421 6.38907156 43.6549929 3.9375 41.625 C-1.24950648 37.09370944 -4.31123136 32.64277661 -4.91796875 25.53125 C-5.10734434 19.68766044 -5.06849821 13.84518038 -5 8 C-8.50608638 10.33739092 -9.25271532 12.05870109 -11.0625 15.8125 C-11.56910156 16.85019531 -12.07570313 17.88789062 -12.59765625 18.95703125 C-13.82110816 21.61181966 -14.94688167 24.27398555 -16 27 C-16.6953125 25.4296875 -16.6953125 25.4296875 -17 23 C-16.05828916 20.57260871 -15.07986411 18.41327014 -13.875 16.125 C-13.57851562 15.52558594 -13.28203125 14.92617187 -12.9765625 14.30859375 C-10.7904993 10.03836012 -8.29863594 6.49454209 -5 3 C-2.1875 2.625 -2.1875 2.625 0 3 C0 2.01 0 1.02 0 0 Z M1 10 C2 12 2 12 2 12 Z M-4 13 C-4 14.65 -4 16.3 -4 18 C-3.67 18 -3.34 18 -3 18 C-3 16.35 -3 14.7 -3 13 C-3.33 13 -3.66 13 -4 13 Z M2 13 C3 15 3 15 3 15 Z M3 15 C4 17 4 17 4 17 Z M-3 24 C-2 26 -2 26 -2 26 Z M-2 28 C-1 30 -1 30 -1 30 Z M-1 30 C-0.65555119 32.47266765 -0.65555119 32.47266765 0 35 C0.66 35.33 1.32 35.66 2 36 C1.34 34.02 0.68 32.04 0 30 C-0.33 30 -0.66 30 -1 30 Z " fill="#6BF214" transform="translate(125,103)"/>
<path d="M0 0 C3.54000822 3.06800712 4.54158015 5.62474045 6 10 C6.99 10.33 7.98 10.66 9 11 C11.1875 13 11.1875 13 12.47265625 14.390625 C14.02424156 16.07713553 14.02424156 16.07713553 15.99609375 17.734375 C23.29121328 24.64131386 23.9472368 32.44836721 25 42 C28.84034527 35.61116872 31.76154275 30.51140346 32 23 C32.04898438 22.23171875 32.09796875 21.4634375 32.1484375 20.671875 C32.41952136 14.04074662 31.00942112 8.29140183 29 2 C29.99 1.67 30.98 1.34 32 1 C37.84208936 14.83951265 39.79129399 24.73312611 34 39 C33.34 39.99 32.68 40.98 32 42 C32.99 42.495 32.99 42.495 34 43 C32.1875 45.5 32.1875 45.5 30 48 C29.01 48 28.02 48 27 48 C28.76296281 43.47369548 30.80159064 39.10761859 32.87890625 34.71875 C34.61698216 30.50376451 35.13019065 26.72277362 35.0625 22.1875 C35.05347656 21.39730469 35.04445312 20.60710937 35.03515625 19.79296875 C35.02355469 19.20128906 35.01195312 18.60960937 35 18 C34.98582031 18.65484375 34.97164062 19.3096875 34.95703125 19.984375 C34.41091766 30.43433225 30.88139068 40.03207394 24 48 C23.01 48 22.02 48 21 48 C21.03480469 47.18917969 21.06960937 46.37835938 21.10546875 45.54296875 C21.3118766 37.09990494 21.42247501 28.22776325 15.875 21.375 C14.92625 20.59125 13.9775 19.8075 13 19 C7.75269094 14.08123445 3.03107397 9.58929124 0 3 C0 2.01 0 1.02 0 0 Z " fill="#6DF217" transform="translate(110,154)"/>
<path d="M0 0 C7.45926515 -0.60155364 12.88332049 0.50335784 19 5 C27.43130188 14.61342255 28.17899309 24.70914126 28 37 C26.0625 36.625 26.0625 36.625 24 36 C23.67 35.34 23.34 34.68 23 34 C23.99 34 24.98 34 26 34 C25.76998701 31.30945333 25.51669552 28.62445732 25.25 25.9375 C25.188125 25.18533203 25.12625 24.43316406 25.0625 23.65820312 C24.27125393 16.04245969 21.27284025 10.14995087 15.28125 5.22265625 C10.60001542 2.71370689 5.22058507 2.45532922 0 2 C0 1.34 0 0.68 0 0 Z " fill="#6DED11" transform="translate(125,103)"/>
<path d="M0 0 C0.33 0 0.66 0 1 0 C1.81279933 12.21005217 0.02655748 21.51562759 -8 31 C-8.66 30.67 -9.32 30.34 -10 30 C-10 27.36 -10 24.72 -10 22 C-9.67 22 -9.34 22 -9 22 C-8.67 23.65 -8.34 25.3 -8 27 C-2.08701883 18.22349965 -0.74874518 10.28879156 0 0 Z " fill="#69F511" transform="translate(143,169)"/>
<path d="M0 0 C0.33 0 0.66 0 1 0 C1.44895473 7.03362418 -0.06756918 13.10135377 -4 19 C-3.34 19.33 -2.68 19.66 -2 20 C-3.8125 22.5 -3.8125 22.5 -6 25 C-6.99 25 -7.98 25 -9 25 C-7.64154456 21.50323507 -6.1215982 18.13162551 -4.5 14.75 C-2.24874087 9.85566968 -0.95433793 5.29223759 0 0 Z " fill="#6FF01F" transform="translate(146,177)"/>
<path d="M0 0 C0.66 0 1.32 0 2 0 C1.67 1.32 1.34 2.64 1 4 C0.34 3.67 -0.32 3.34 -1 3 C-1.268125 3.53753906 -1.53625 4.07507813 -1.8125 4.62890625 C-2.68344135 6.36792402 -3.55912222 8.10457026 -4.4375 9.83984375 C-4.953125 10.86207031 -5.46875 11.88429688 -6 12.9375 C-6.515625 13.95714844 -7.03125 14.97679688 -7.5625 16.02734375 C-8.83185997 18.65229737 -9.95750906 21.2784972 -11 24 C-11.6953125 22.4296875 -11.6953125 22.4296875 -12 20 C-11.05828916 17.57260871 -10.07986411 15.41327014 -8.875 13.125 C-8.57851562 12.52558594 -8.28203125 11.92617187 -7.9765625 11.30859375 C-5.79161215 7.04053396 -3.27488318 3.51110426 0 0 Z " fill="#62D019" transform="translate(120,106)"/>
<path d="M0 0 C0.25 5.625 0.25 5.625 -2 9 C-2.4603764 12.19806665 -2.4603764 12.19806665 -2.625 15.6875 C-2.69976562 16.86699219 -2.77453125 18.04648438 -2.8515625 19.26171875 C-2.90054688 20.16535156 -2.94953125 21.06898437 -3 22 C-6.35183778 16.33379804 -5.62261571 9.57940794 -4.125 3.375 C-2.52631579 0 -2.52631579 0 0 0 Z " fill="#5AC41A" transform="translate(126,105)"/>
<path d="M0 0 C1.9375 0.75 1.9375 0.75 4 2 C4.625 3.9375 4.625 3.9375 5 6 C5.99 7.485 5.99 7.485 7 9 C6.67 9.99 6.34 10.98 6 12 C4.76302083 10.47005208 3.52604167 8.94010417 2.2890625 7.41015625 C1.0333609 5.86733563 1.0333609 5.86733563 -1 5 C-0.67 3.35 -0.34 1.7 0 0 Z " fill="#69F511" transform="translate(144,133)"/>
<path d="M0 0 C0.66 0.33 1.32 0.66 2 1 C1.06398754 2.41764994 0.1261208 3.83407568 -0.8125 5.25 C-1.33457031 6.03890625 -1.85664063 6.8278125 -2.39453125 7.640625 C-2.92433594 8.41921875 -3.45414063 9.1978125 -4 10 C-4.74830078 11.13695312 -4.74830078 11.13695312 -5.51171875 12.296875 C-6.00285156 12.85890625 -6.49398437 13.4209375 -7 14 C-7.99 14 -8.98 14 -10 14 C-8.75481714 10.26445141 -6.77378939 8.77378939 -4 6 C-2.56448944 4.04917795 -1.28947529 2.05360879 0 0 Z " fill="#6BF218" transform="translate(152,182)"/>
<path d="M0 0 C1.33333333 1.33333333 2.66666667 2.66666667 4 4 C4.886875 4.845625 5.77375 5.69125 6.6875 6.5625 C9 9 9 9 10 12 C6.88175879 10.63746417 4.95262649 9.14891747 2.75 6.5625 C2.22921875 5.96566406 1.7084375 5.36882812 1.171875 4.75390625 C0 3 0 3 0 0 Z " fill="#6BF315" transform="translate(129,122)"/>
<path d="M0 0 C0.66 0 1.32 0 2 0 C2 0.66 2 1.32 2 2 C2.66 2 3.32 2 4 2 C3.67 3.65 3.34 5.3 3 7 C2.34 7 1.68 7 1 7 C0.67 4.69 0.34 2.38 0 0 Z " fill="#63EE0D" transform="translate(108,147)"/>
<path d="M0 0 C0.33 0 0.66 0 1 0 C1 2.64 1 5.28 1 8 C1.66 8 2.32 8 3 8 C2.67 8.99 2.34 9.98 2 11 C1.01 11 0.02 11 -1 11 C-0.67 7.37 -0.34 3.74 0 0 Z " fill="#70E922" transform="translate(132,191)"/>
<path d="M0 0 C0.66 1.32 1.32 2.64 2 4 C1.01 5.485 1.01 5.485 0 7 C-0.99 7 -1.98 7 -3 7 C-1.125 2.25 -1.125 2.25 0 0 Z " fill="#80DE38" transform="translate(140,195)"/>
</svg>
